<svg width="348" height="122" viewBox="0 0 348 122" fill="none" xmlns="http://www.w3.org/2000/svg">
    <style>
        .blink {
            animation: blink_anim 0.8s infinite alternate
        }

        @keyframes blink_anim {
            0% {
                r: 5                
            }
            80% {
                r: 12                
            }
            100% {
                r: 12                
            }
        }
    </style>
<path d="M3.625 74.4594L0 80V122H348V1L344.375 1.65313C340.75 2.30626 333.5 3.61252 326.25 7.32759C319 11.0427 311.75 17.1665 304.5 20.6517C297.25 24.1369 290 24.9835 282.75 25.7821C275.5 26.5807 268.25 27.3314 261 23.8705C253.75 20.4095 246.5 12.7369 239.25 15.6914C232 18.6458 224.75 32.2274 217.5 36.7231C210.25 41.2187 203 36.6284 195.75 38.0281C188.5 39.4279 181.25 46.8177 174 48.6394C166.75 50.4612 159.5 46.7149 152.25 46.817C145 46.9191 137.75 50.8697 130.5 48.6788C123.25 46.488 116 38.1558 108.75 40.0283C101.5 41.9008 94.25 53.9781 87 56.1302C79.75 58.2822 72.5 50.509 65.25 46.6046C58 42.7002 50.75 42.6646 43.5 43.3347C36.25 44.0048 29 45.3805 21.75 51.609C14.5 57.8375 7.25 68.9188 3.625 74.4594Z" fill="url(#paint0_linear_601_3540)"/>
<path d="M0 80L3.625 74.4594C7.25 68.9188 14.5 57.8375 21.75 51.609C29 45.3805 36.25 44.0048 43.5 43.3347C50.75 42.6646 58 42.7002 65.25 46.6046C72.5 50.509 79.75 58.2822 87 56.1302C94.25 53.9781 101.5 41.9008 108.75 40.0283C116 38.1558 123.25 46.488 130.5 48.6788C137.75 50.8697 145 46.9191 152.25 46.817C159.5 46.7149 166.75 50.4612 174 48.6394C181.25 46.8177 188.5 39.4279 195.75 38.0281C203 36.6284 210.25 41.2187 217.5 36.7231C224.75 32.2274 232 18.6458 239.25 15.6914C246.5 12.7369 253.75 20.4095 261 23.8705C268.25 27.3314 275.5 26.5807 282.75 25.7821C290 24.9835 297.25 24.1369 304.5 20.6517C311.75 17.1665 319 11.0427 326.25 7.32759C333.5 3.61252 340.75 2.30626 344.375 1.65313L348 1" stroke="#2CBA65" stroke-width="2"/>
<g filter="url(#filter0_d_601_3540)">
<circle class="blink" cx="187" cy="43" r="9" fill="white"/>
<circle cx="187" cy="43" r="6" stroke="#2CC96A" stroke-width="6"/>
</g>
<defs>
<filter id="filter0_d_601_3540" x="147" y="10" width="80" height="80" filterUnits="userSpaceOnUse" color-interpolation-filters="sRGB">
<feFlood flood-opacity="0" result="BackgroundImageFix"/>
<feColorMatrix in="SourceAlpha" type="matrix" values="0 0 0 0 0 0 0 0 0 0 0 0 0 0 0 0 0 0 127 0" result="hardAlpha"/>
<feOffset dy="7"/>
<feGaussianBlur stdDeviation="15.5"/>
<feComposite in2="hardAlpha" operator="out"/>
<feColorMatrix type="matrix" values="0 0 0 0 0 0 0 0 0 0 0 0 0 0 0 0 0 0 1 0"/>
<feBlend mode="normal" in2="BackgroundImageFix" result="effect1_dropShadow_601_3540"/>
<feBlend mode="normal" in="SourceGraphic" in2="effect1_dropShadow_601_3540" result="shape"/>
</filter>
<linearGradient id="paint0_linear_601_3540" x1="3.503" y1="1" x2="3.503" y2="122" gradientUnits="userSpaceOnUse">
<stop stop-color="#51DD67"/>
<stop offset="1" stop-color="#51DD67" stop-opacity="0.01"/>
</linearGradient>
</defs>
</svg>
