<svg width="348" height="125" viewBox="0 0 348 125" fill="none" xmlns="http://www.w3.org/2000/svg">
    <style>
        .blink {
            animation: blink_anim 0.8s infinite alternate
        }

        @keyframes blink_anim {
            0% {
                r: 5                
            }
            80% {
                r: 12                
            }
            100% {
                r: 12                
            }
        }
    </style>
<path d="M3.625 79.4389L0 81V125H348V15.8115L344.375 14.0002C340.75 12.1889 333.5 8.56633 326.25 13.4499C319 18.3334 311.75 31.7231 304.5 38.793C297.25 45.863 290 46.6133 282.75 43.6911C275.5 40.769 268.25 34.1744 261 35.2808C253.75 36.3871 246.5 45.1945 239.25 45.4035C232 45.6124 224.75 37.2228 217.5 32.256C210.25 27.2893 203 25.7453 195.75 28.2943C188.5 30.8433 181.25 37.4853 174 43.9697C166.75 50.4541 159.5 56.7809 152.25 57.5675C145 58.3541 137.75 53.6006 130.5 47.9451C123.25 42.2896 116 35.7321 108.75 36.4952C101.5 37.2583 94.25 45.3419 87 48.5767C79.75 51.8115 72.5 50.1974 65.25 53.7869C58 57.3765 50.75 66.1696 43.5 70.0112C36.25 73.8528 29 72.743 21.75 73.7492C14.5 74.7554 7.25 77.8777 3.625 79.4389Z" fill="url(#paint0_linear_601_3087)"/>
<path d="M0 81L3.625 79.4389C7.25 77.8777 14.5 74.7554 21.75 73.7492C29 72.743 36.25 73.8528 43.5 70.0112C50.75 66.1696 58 57.3765 65.25 53.7869C72.5 50.1974 79.75 51.8115 87 48.5767C94.25 45.3419 101.5 37.2583 108.75 36.4952C116 35.7321 123.25 42.2896 130.5 47.9451C137.75 53.6006 145 58.3541 152.25 57.5675C159.5 56.7809 166.75 50.4541 174 43.9697C181.25 37.4853 188.5 30.8433 195.75 28.2943C203 25.7453 210.25 27.2893 217.5 32.256C224.75 37.2228 232 45.6124 239.25 45.4035C246.5 45.1945 253.75 36.3872 261 35.2808C268.25 34.1744 275.5 40.769 282.75 43.6911C290 46.6133 297.25 45.863 304.5 38.793C311.75 31.7231 319 18.3334 326.25 13.4499C333.5 8.56633 340.75 12.1889 344.375 14.0002L348 15.8115" stroke="#2CBA65" stroke-width="2"/>
<g filter="url(#filter0_d_601_3087)">
<circle class="blink" cx="187" cy="33" r="9" fill="white"/>
<circle cx="187" cy="33" r="6" stroke="#2CBA65" stroke-width="6"/>
</g>
<defs>
<filter id="filter0_d_601_3087" x="147" y="0" width="80" height="80" filterUnits="userSpaceOnUse" color-interpolation-filters="sRGB">
<feFlood flood-opacity="0" result="BackgroundImageFix"/>
<feColorMatrix in="SourceAlpha" type="matrix" values="0 0 0 0 0 0 0 0 0 0 0 0 0 0 0 0 0 0 127 0" result="hardAlpha"/>
<feOffset dy="7"/>
<feGaussianBlur stdDeviation="15.5"/>
<feComposite in2="hardAlpha" operator="out"/>
<feColorMatrix type="matrix" values="0 0 0 0 0 0 0 0 0 0 0 0 0 0 0 0 0 0 1 0"/>
<feBlend mode="normal" in2="BackgroundImageFix" result="effect1_dropShadow_601_3087"/>
<feBlend mode="normal" in="SourceGraphic" in2="effect1_dropShadow_601_3087" result="shape"/>
</filter>
<linearGradient id="paint0_linear_601_3087" x1="3.503" y1="11" x2="3.503" y2="125" gradientUnits="userSpaceOnUse">
<stop stop-color="#51DD67"/>
<stop offset="1" stop-color="#51DD67" stop-opacity="0.01"/>
</linearGradient>
</defs>
</svg>
